# xmcd
# 
# Track frame offsets:
#     150
#     13060
#     24335
#     37805
#     51215
#     64152
#     74920
#     86820
#     99767
#     112645
#     125017
#     138597
#     150612
#     162125
#     174885
#     188310
#     199695
#     211710
#     222927
#     234200
# 
# Disc length: 3280
# 
# Revision: 6
# Processed by: cddbd v1.5.2PL0 Copyright (c) Steve Scherf et al.
# Submitted via: fre:ac v1.0.31
# 
DISCID=fe0cce14
DTITLE=Robert Johnson - The Complete Recordings Disc 1
DYEAR=1990
DGENRE=Blues
TTITLE0=Kindhearted Woman Blues
TTITLE1=Kindhearted Woman Blues (Take 2)
TTITLE2=I Believe I'll Dust My Broom
TTITLE3=Sweet Home Chicago
TTITLE4=Rambling On My Mind
TTITLE5=Rambling On My Mind (Take 2)
TTITLE6=When You Got A Good Friend
TTITLE7=When You Got A Good Friend (Take 2)
TTITLE8=Come On In My Kitchen
TTITLE9=Comeon In My Kitchen (Take 2)
TTITLE10=Terraplane Blues
TTITLE11=Phonograph Blues
TTITLE12=Phonograph Blues (Take 2)
TTITLE13=32-20 Blues
TTITLE14=They're Red Hot
TTITLE15=Dead Shrimp Blues
TTITLE16=Cross Roads Blues
TTITLE17=Cross Roads Blues (Take 2)
TTITLE18=Walking Blues
TTITLE19=Last Fair Deal Gone Down
EXTD=
EXTT0=
EXTT1=
EXTT2=
EXTT3=
EXTT4=
EXTT5=
EXTT6=
EXTT7=
EXTT8=
EXTT9=
EXTT10=
EXTT11=
EXTT12=
EXTT13=
EXTT14=
EXTT15=
EXTT16=
EXTT17=
EXTT18=
EXTT19=
PLAYORDER=
